<?xml version="1.0" standalone="no"?>
<!DOCTYPE svg PUBLIC "-//W3C//DTD SVG 20010904//EN"
 "http://www.w3.org/TR/2001/REC-SVG-20010904/DTD/svg10.dtd">
<svg version="1.0" xmlns="http://www.w3.org/2000/svg"
 width="260.000000pt" height="260.000000pt" viewBox="0 0 260.000000 260.000000"
 preserveAspectRatio="xMidYMid meet">
<metadata>
Created by potrace 1.11, written by Peter Selinger 2001-2013
</metadata>
<g transform="translate(0.000000,260.000000) scale(0.100000,-0.100000)"
fill="#000000" stroke="none">
<path d="M1150 2580 c-470 -56 -882 -378 -1054 -826 -241 -626 48 -1341 658
-1630 366 -173 792 -163 1159 28 604 314 856 1073 563 1694 -238 503 -773 799
-1326 734z m370 -709 l0 -109 -112 -3 c-96 -4 -118 -7 -150 -27 -43 -27 -78
-92 -78 -145 l0 -36 136 -3 136 -3 0 -110 0 -110 -136 -3 -136 -3 0 -324 0
-325 -115 0 -116 0 3 325 3 324 -53 3 -54 3 0 110 0 110 56 3 c40 2 54 6 50
16 -9 23 15 136 40 191 33 72 102 145 171 180 76 38 102 43 238 44 l117 1 0
-109z m167 -997 c87 -42 104 -161 33 -229 -40 -38 -119 -46 -167 -16 -89 56
-86 192 5 240 46 25 84 26 129 5z"/>
</g>
</svg>
